<svg width="195" height="187" viewBox="0 0 195 187" fill="none" xmlns="http://www.w3.org/2000/svg">
<path d="M97.5 46.75C98.5671 46.7497 99.6237 46.9511 100.61 47.3426C101.596 47.734 102.491 48.308 103.246 49.0315C104 49.7551 104.599 50.6142 105.007 51.5596C105.415 52.5051 105.625 53.5184 105.625 54.5417V89.0002L122.668 98.4383C124.534 99.4721 125.895 101.174 126.452 103.17C127.009 105.166 126.717 107.292 125.64 109.081C124.563 110.871 122.789 112.177 120.708 112.712C118.627 113.248 116.41 112.969 114.543 111.937L93.4375 100.249C92.2046 99.5625 91.1809 98.5781 90.4681 97.3939C89.7553 96.2098 89.3785 94.8672 89.375 93.5V54.5417C89.3747 53.5184 89.5847 52.5051 89.9929 51.5596C90.4011 50.6142 90.9996 49.7551 91.7541 49.0315C92.5087 48.308 93.4045 47.734 94.3904 47.3426C95.3763 46.9511 96.4329 46.7497 97.5 46.75Z" fill="#80002E"/>
<path d="M16.25 93.5C16.25 108.91 21.0152 123.975 29.9431 136.788C38.871 149.602 51.5605 159.588 66.407 165.486C81.2535 171.383 97.5901 172.926 113.351 169.92C129.112 166.913 143.589 159.492 154.952 148.595C166.315 137.699 174.054 123.815 177.189 108.701C180.324 93.5864 178.715 77.92 172.565 63.6826C166.416 49.4452 156.002 37.2763 142.64 28.7147C129.279 20.1531 113.57 15.5833 97.5 15.5833C86.8301 15.5833 76.2647 17.5987 66.407 21.5144C56.5493 25.4301 47.5923 31.1694 40.0476 38.4046C24.8102 53.0168 16.25 72.8352 16.25 93.5ZM89.375 54.5417C89.375 52.4752 90.231 50.4934 91.7548 49.0321C93.2785 47.5709 95.3451 46.75 97.5 46.75C99.6549 46.75 101.722 47.5709 103.245 49.0321C104.769 50.4934 105.625 52.4752 105.625 54.5417V89.0002L122.669 98.4383C124.534 99.4721 125.895 101.174 126.452 103.17C127.009 105.166 126.717 107.292 125.64 109.081C124.563 110.871 122.789 112.177 120.708 112.712C118.627 113.248 116.41 112.969 114.544 111.937L93.4375 100.249C92.2046 99.5625 91.1809 98.5781 90.4681 97.3939C89.7553 96.2098 89.3785 94.8673 89.375 93.5V54.5417Z" fill="#FFA1FB"/>
</svg>
