<svg width="1439" height="1080" viewBox="0 0 1439 1080" fill="none" xmlns="http://www.w3.org/2000/svg">
<path d="M1440.67 -125.447C1557.51 -20.549 1633.98 125.81 1756.74 336.177C1880.07 546.545 2050.13 820.894 1985.64 984.455C1921.14 1148.02 1620.94 1200.74 1337.49 1308C1054.04 1415.26 787.18 1576.43 541.688 1545.01C296.196 1513.59 72.0727 1289.63 15.7043 1041.92C-41.2353 793.625 69.0608 521.637 148.511 273.934C227.391 26.257 275.425 -197.239 413.581 -298.427C551.736 -399.615 780.066 -377.872 973.396 -335.814C1166.7 -293.238 1323.84 -230.319 1440.67 -125.447Z" fill="#F2F2F2"/>
<path fill-rule="evenodd" clip-rule="evenodd" d="M985.983 276.735L952.085 330.91L920.974 276.735H921.309C916.557 269.983 913.754 261.677 913.754 252.695C913.754 230.069 931.541 211.726 953.482 211.726C975.423 211.726 993.21 230.069 993.21 252.695C993.21 261.677 990.408 269.983 985.655 276.735H985.983ZM954.1 226.173C942.787 226.173 933.615 235.344 933.615 246.657C933.615 257.971 942.787 267.142 954.1 267.142C965.413 267.142 974.585 257.971 974.585 246.657C974.585 235.344 965.413 226.173 954.1 226.173Z" fill="#7C7C7C"/>
<path d="M578.261 399.444L614.047 359.624L771.106 386.031M578.261 399.444L554.404 359.624L502.714 333.741L347.643 307.858M578.261 399.444L558.233 562.707M1431.15 497.004L1508.69 196.362M1431.15 497.004L963.95 418.453M1431.15 497.004L1390.4 729.951M1349.64 962.898L1081.25 950.982M1349.64 962.898L1390.4 729.951M1349.64 962.898L1441.09 974.844L1457 861.357H1508.69L1526.58 775.744M347.643 307.858L329.75 497.004L476.869 522.887L558.233 562.707M347.643 307.858L373.488 -30.6122M558.233 562.707L492.774 1096.3L502.714 1118.2L862.558 962.898L946.058 944.979L1081.25 950.982M771.106 386.031L814.844 134.641H912.26L924.189 43.0549M771.106 386.031L963.95 418.453M963.95 418.453L912.26 841.447M1081.25 950.982L1115.05 712.032M1390.4 729.951L1526.58 775.744M1526.58 775.744L1548.45 542.797L1574.29 399.444" stroke="white" stroke-width="10"/>
<path d="M930.748 447.333L611.956 415.615L568.395 845.79L889.166 873.543L930.748 447.333Z" fill="#CFF6FF"/>
<path d="M685.219 70.6822L697.099 1.29919L802.043 21.1229L790.163 92.4883L685.219 70.6822Z" fill="#CFF6FF"/>
<path d="M867.385 193.589H817.884L790.163 354.161L841.645 364.073L867.385 193.589Z" fill="#CFF6FF"/>
</svg>
