<svg width="1920" height="103" viewBox="0 0 1920 103" fill="none" xmlns="http://www.w3.org/2000/svg">
<mask id="mask0" mask-type="alpha" maskUnits="userSpaceOnUse" x="0" y="0" width="1920" height="103">
<rect width="1920" height="103" fill="white"/>
</mask>
<g mask="url(#mask0)">
<path d="M1921.67 -125.447C2038.51 -20.549 2114.98 125.81 2237.74 336.177C2361.07 546.545 2531.13 820.894 2466.64 984.455C2402.14 1148.02 2101.94 1200.74 1818.49 1308C1535.04 1415.26 1268.18 1576.43 1022.69 1545.01C777.196 1513.59 553.073 1289.63 496.704 1041.92C439.765 793.625 550.061 521.637 629.511 273.934C708.391 26.257 756.425 -197.239 894.581 -298.427C1032.74 -399.615 1261.07 -377.872 1454.4 -335.814C1647.7 -293.238 1804.84 -230.319 1921.67 -125.447Z" fill="#F2F2F2"/>
<path d="M1059.26 399.444L1095.05 359.624L1252.11 386.031M1059.26 399.444L1035.4 359.624L983.714 333.741L828.643 307.858M1059.26 399.444L1039.23 562.707M1912.15 497.004L1989.69 196.362M1912.15 497.004L1444.95 418.453M1912.15 497.004L1871.4 729.951M1830.64 962.898L1562.25 950.982M1830.64 962.898L1871.4 729.951M1830.64 962.898L1922.09 974.844L1938 861.357H1989.69L2007.58 775.744M828.643 307.858L810.75 497.004L957.869 522.887L1039.23 562.707M828.643 307.858L854.488 -30.6122M1039.23 562.707L973.774 1096.3L983.714 1118.2L1343.56 962.898L1427.06 944.979L1562.25 950.982M1252.11 386.031L1295.84 134.641H1393.26L1405.19 43.0549M1252.11 386.031L1444.95 418.453M1444.95 418.453L1393.26 841.447M1562.25 950.982L1596.05 712.032M1871.4 729.951L2007.58 775.744M2007.58 775.744L2029.45 542.797L2055.29 399.444" stroke="white" stroke-width="10"/>
<path d="M1411.75 447.333L1092.96 415.615L1049.39 845.79L1370.17 873.543L1411.75 447.333Z" fill="#CFF6FF"/>
<path d="M1166.22 70.6822L1178.1 1.29919L1283.04 21.1229L1271.16 92.4883L1166.22 70.6822Z" fill="#CFF6FF"/>
<path d="M1348.39 193.589H1298.88L1271.16 354.161L1322.64 364.073L1348.39 193.589Z" fill="#CFF6FF"/>
</g>
</svg>
